<?xml version="1.0" encoding="UTF-8"?>
<svg xmlns="http://www.w3.org/2000/svg" xmlns:xlink="http://www.w3.org/1999/xlink" width="463pt" height="178pt" viewBox="55 359.89 463 178" version="1.2">
<g id="surface1">
<path style=" stroke:none;fill-rule:nonzero;fill:rgb(13.725281%,12.156677%,12.548828%);fill-opacity:1;" d="M 95.792969 447.585938 L 95.480469 445.953125 C 97.3125 445.601562 98.109375 444.109375 97.714844 442.042969 L 93.144531 418.300781 L 83.199219 420.210938 L 87.769531 443.957031 C 88.148438 445.9375 89.460938 447.109375 91.292969 446.757812 L 91.609375 448.394531 L 75.121094 451.5625 L 74.804688 449.929688 C 76.375 449.628906 77.453125 448.171875 77.039062 446.019531 L 67.390625 395.863281 C 66.976562 393.710938 65.433594 392.761719 63.867188 393.0625 L 63.550781 391.425781 L 80.039062 388.257812 L 80.351562 389.890625 C 78.609375 390.226562 77.722656 391.734375 78.117188 393.800781 L 81.5625 411.695312 L 91.507812 409.78125 L 88.0625 391.886719 C 87.652344 389.738281 86.285156 388.75 84.539062 389.085938 L 84.226562 387.453125 L 100.625 384.296875 L 100.941406 385.929688 C 99.28125 386.25 98.277344 387.601562 98.707031 389.839844 L 108.355469 439.996094 C 108.785156 442.234375 110.222656 443.117188 111.878906 442.796875 L 112.195312 444.433594 Z M 95.792969 447.585938 "/>
<path style=" stroke:none;fill-rule:nonzero;fill:rgb(13.725281%,12.156677%,12.548828%);fill-opacity:1;" d="M 142.21875 394.613281 L 147.378906 429.894531 C 147.632812 431.628906 147.886719 432.742188 148.476562 433.71875 C 146.371094 436.503906 142.132812 441.285156 135.628906 442.238281 C 128.773438 443.238281 123.242188 439.796875 120.339844 437.742188 C 120.613281 436.550781 120.574219 435.671875 120.308594 433.851562 L 115.148438 398.570312 C 114.917969 397.007812 113.8125 396.195312 112.316406 396.414062 L 112.089844 394.855469 L 126.59375 392.734375 L 126.820312 394.296875 C 125.328125 394.511719 124.410156 395.621094 124.640625 397.183594 L 129.585938 430.988281 C 129.992188 433.765625 132.117188 435.402344 134.753906 435.015625 C 137.390625 434.628906 138.828125 432.207031 138.460938 429.691406 L 133.515625 395.882812 C 133.289062 394.324219 131.742188 393.574219 130.25 393.792969 L 130.019531 392.234375 L 144.171875 390.164062 L 144.398438 391.726562 C 142.816406 391.957031 141.988281 393.050781 142.21875 394.613281 "/>
<path style=" stroke:none;fill-rule:nonzero;fill:rgb(13.725281%,12.156677%,12.548828%);fill-opacity:1;" d="M 183.695312 413.210938 L 185.324219 428.457031 C 185.488281 430.023438 185.921875 431.566406 186.476562 432.5625 C 184.070312 434.316406 180.363281 436.386719 173.914062 437.074219 C 163.226562 438.214844 157.253906 429.160156 155.527344 412.957031 C 153.628906 395.183594 160.640625 387.214844 169.5625 386.261719 C 171.066406 386.101562 173.574219 386.1875 174.722656 386.0625 C 175.253906 386.007812 176.128906 385.828125 176.628906 385.507812 L 179.191406 395.28125 L 177.472656 395.902344 C 176.199219 394.011719 174.582031 393.125 171.667969 393.4375 C 166.546875 393.984375 164.039062 399.800781 165.320312 411.824219 C 166.976562 427.328125 170.375 429.875 174.527344 429.433594 C 174.96875 429.386719 175.675781 429.308594 175.675781 429.308594 L 174.066406 414.238281 C 173.898438 412.671875 172.746094 411.914062 171.246094 412.074219 L 171.058594 410.332031 L 185.898438 408.75 L 186.085938 410.492188 C 184.582031 410.652344 183.539062 411.734375 183.695312 413.210938 "/>
<path style=" stroke:none;fill-rule:nonzero;fill:rgb(13.725281%,12.156677%,12.548828%);fill-opacity:1;" d="M 212.460938 432.765625 L 212.351562 431.191406 C 214.035156 431.074219 214.929688 429.871094 214.824219 428.296875 L 213.507812 409.417969 L 205.355469 409.984375 L 206.667969 428.867188 C 206.777344 430.4375 207.832031 431.507812 209.515625 431.390625 L 209.625 432.960938 L 194.738281 433.996094 L 194.628906 432.425781 C 196.132812 432.320312 197.117188 431.109375 197.007812 429.535156 L 194.199219 389.15625 C 194.089844 387.582031 192.953125 386.609375 191.445312 386.710938 L 191.335938 385.136719 L 206.226562 384.105469 L 206.335938 385.675781 C 204.742188 385.789062 203.742188 386.824219 203.859375 388.484375 L 204.84375 402.644531 L 212.996094 402.078125 L 212.011719 387.917969 C 211.902344 386.34375 210.765625 385.371094 209.171875 385.480469 L 209.0625 383.90625 L 223.949219 382.871094 L 224.058594 384.445312 C 222.554688 384.550781 221.554688 385.585938 221.671875 387.246094 L 224.480469 427.625 C 224.597656 429.289062 225.734375 430.261719 227.242188 430.160156 L 227.351562 431.730469 Z M 212.460938 432.765625 "/>
<path style=" stroke:none;fill-rule:nonzero;fill:rgb(13.725281%,12.156677%,12.548828%);fill-opacity:1;" d="M 280.96875 430.144531 L 280.945312 428.480469 C 282.542969 428.457031 283.859375 427.210938 283.824219 425.019531 L 283.367188 393.308594 L 283.191406 393.3125 L 275.804688 417.164062 L 272.429688 417.210938 L 264.09375 393.585938 L 263.914062 393.589844 L 264.375 425.300781 C 264.40625 427.578125 265.753906 428.699219 267.355469 428.675781 L 267.378906 430.339844 L 251.300781 430.570312 L 251.277344 428.910156 C 252.878906 428.882812 254.191406 427.640625 254.160156 425.449219 L 253.421875 374.378906 C 253.390625 372.1875 252.21875 370.976562 250.441406 371.003906 L 250.417969 369.339844 L 265.074219 369.128906 C 265.09375 370.527344 265.203125 371.929688 265.757812 373.410156 L 274.175781 396.507812 L 274.441406 396.503906 L 281.398438 373.886719 C 281.910156 372.300781 282.328125 370.542969 282.214844 368.882812 L 296.871094 368.667969 L 296.894531 370.332031 C 295.207031 370.359375 293.984375 371.867188 294.011719 373.792969 L 294.75 424.863281 C 294.78125 426.964844 295.953125 428.265625 297.730469 428.238281 L 297.753906 429.902344 Z M 280.96875 430.144531 "/>
<path style=" stroke:none;fill-rule:nonzero;fill:rgb(13.725281%,12.156677%,12.548828%);fill-opacity:1;" d="M 320.738281 391.085938 L 320.652344 391.085938 L 317.261719 414.929688 C 317.960938 415.382812 319.109375 415.671875 320.351562 415.703125 C 321.507812 415.726562 322.667969 415.40625 323.386719 415.070312 Z M 322.675781 430.476562 L 322.714844 428.898438 C 324.136719 428.933594 324.511719 428.066406 324.523438 427.453125 C 324.53125 427.1875 324.417969 424.382812 324.183594 422.886719 C 323.199219 423.214844 321.59375 423.53125 320.085938 423.496094 C 318.574219 423.460938 316.984375 423.074219 316.015625 422.699219 C 315.714844 424.183594 315.386719 426.804688 315.378906 427.242188 C 315.359375 428.03125 315.789062 428.742188 317.121094 428.773438 L 317.082031 430.351562 L 304.117188 430.054688 L 304.152344 428.476562 C 305.308594 428.503906 306.125 427.734375 306.328125 426.597656 L 314.203125 385.589844 C 314.308594 384.894531 314.410156 384.28125 314.414062 384.105469 C 314.425781 383.582031 314.085938 382.871094 313.109375 382.851562 L 313.144531 381.273438 L 329.839844 381.65625 L 329.804688 383.230469 C 329.007812 383.210938 328.550781 383.726562 328.535156 384.339844 C 328.523438 384.867188 328.601562 385.394531 328.675781 386.007812 L 334.484375 427.152344 C 334.714844 428.648438 335.414062 429.191406 336.65625 429.21875 L 336.621094 430.796875 Z M 322.675781 430.476562 "/>
<path style=" stroke:none;fill-rule:nonzero;fill:rgb(13.725281%,12.156677%,12.548828%);fill-opacity:1;" d="M 370.957031 410.84375 L 370.125 426.152344 C 370.039062 427.726562 370.21875 429.316406 370.605469 430.390625 C 367.953125 431.738281 363.957031 433.1875 357.484375 432.832031 C 346.75 432.25 342.304688 422.355469 343.191406 406.082031 C 344.160156 388.238281 352.355469 381.492188 361.316406 381.976562 C 362.824219 382.0625 365.289062 382.546875 366.441406 382.609375 C 366.972656 382.636719 367.863281 382.597656 368.410156 382.363281 L 369.378906 392.417969 L 367.578125 392.761719 C 366.625 390.691406 365.171875 389.558594 362.246094 389.398438 C 357.101562 389.121094 353.699219 394.460938 353.042969 406.53125 C 352.195312 422.105469 355.144531 425.160156 359.3125 425.386719 C 359.753906 425.410156 360.464844 425.449219 360.464844 425.449219 L 361.289062 410.316406 C 361.375 408.742188 360.355469 407.808594 358.847656 407.726562 L 358.945312 405.976562 L 373.84375 406.789062 L 373.75 408.539062 C 372.242188 408.457031 371.035156 409.355469 370.957031 410.84375 "/>
<path style=" stroke:none;fill-rule:nonzero;fill:rgb(13.725281%,12.156677%,12.548828%);fill-opacity:1;" d="M 412.101562 391.085938 L 408.917969 426.601562 C 408.761719 428.347656 408.75 429.492188 409.097656 430.578125 C 406.402344 432.796875 401.167969 436.464844 394.621094 435.875 C 387.722656 435.253906 383.140625 430.621094 380.796875 427.949219 C 381.339844 426.855469 381.507812 425.988281 381.671875 424.15625 L 384.851562 388.640625 C 384.992188 387.070312 384.105469 386.019531 382.601562 385.886719 L 382.742188 384.316406 L 397.339844 385.625 L 397.199219 387.195312 C 395.695312 387.0625 394.546875 387.925781 394.40625 389.496094 L 391.355469 423.53125 C 391.109375 426.324219 392.792969 428.410156 395.449219 428.648438 C 398.101562 428.886719 400.066406 426.863281 400.292969 424.332031 L 403.339844 390.300781 C 403.484375 388.726562 402.152344 387.640625 400.648438 387.507812 L 400.789062 385.933594 L 415.035156 387.214844 L 414.894531 388.785156 C 413.300781 388.640625 412.242188 389.515625 412.101562 391.085938 "/>
<path style=" stroke:none;fill-rule:nonzero;fill:rgb(13.725281%,12.156677%,12.548828%);fill-opacity:1;" d="M 417.476562 436.832031 L 417.664062 435.269531 C 419.164062 435.445312 420.359375 434.441406 420.546875 432.875 L 425.363281 392.597656 C 425.554688 391.035156 424.785156 389.972656 423.109375 389.769531 L 423.296875 388.203125 L 438.113281 389.980469 L 437.925781 391.542969 C 436.164062 391.332031 435.167969 392.183594 434.976562 393.75 L 430.160156 434.027344 C 429.960938 435.679688 430.808594 436.839844 432.480469 437.042969 L 432.296875 438.605469 Z M 417.476562 436.832031 "/>
<path style=" stroke:none;fill-rule:nonzero;fill:rgb(13.725281%,12.156677%,12.548828%);fill-opacity:1;" d="M 459.136719 399.886719 C 458.699219 399.820312 458.347656 399.765625 457.628906 399.75 L 455.296875 415.257812 C 455.722656 415.410156 456.515625 415.527344 456.777344 415.566406 C 459.851562 416.03125 462.964844 414.460938 463.863281 408.484375 C 464.75 402.589844 461.945312 400.308594 459.136719 399.886719 M 458.414062 442.308594 C 457.8125 437.964844 457.101562 427.753906 457.355469 422.476562 L 454.28125 422.015625 L 452.027344 437.003906 C 451.792969 438.5625 452.5 439.820312 454.171875 440.074219 L 453.933594 441.632812 L 439.265625 439.425781 L 439.5 437.867188 C 440.992188 438.089844 442.21875 437.121094 442.453125 435.5625 L 448.484375 395.449219 C 448.707031 393.976562 448.160156 392.832031 446.316406 392.554688 L 446.550781 390.992188 C 449.664062 391.195312 455.410156 391.792969 460.070312 392.496094 C 469.554688 393.921875 475.355469 398.960938 473.78125 409.441406 C 472.777344 416.113281 469.566406 419.527344 466.105469 421.046875 C 466.203125 426.378906 466.964844 433.847656 468.023438 439.941406 C 468.269531 441.308594 469.105469 442.320312 470.597656 442.542969 L 470.363281 444.101562 Z M 458.414062 442.308594 "/>
<path style=" stroke:none;fill-rule:nonzero;fill:rgb(13.725281%,12.156677%,12.548828%);fill-opacity:1;" d="M 499.925781 450.144531 C 499.292969 449.667969 498.105469 449.265625 496.707031 449.003906 L 476.191406 445.148438 L 476.484375 443.597656 C 477.96875 443.875 479.222656 442.953125 479.515625 441.402344 L 487.011719 401.535156 C 487.300781 399.984375 486.433594 398.84375 484.949219 398.5625 L 485.238281 397.011719 L 505.144531 400.753906 C 507.0625 401.117188 507.984375 401.023438 508.644531 400.878906 L 508.734375 410.96875 L 507.066406 411.191406 C 506.851562 409.457031 506.140625 408.429688 504.65625 408.152344 L 495.839844 406.496094 L 493.816406 417.257812 L 501.0625 418.621094 C 502.546875 418.898438 504.089844 418.386719 504.363281 416.921875 L 505.933594 417.21875 L 503.6875 429.1875 L 502.113281 428.894531 C 502.390625 427.429688 501.519531 426.285156 499.6875 425.941406 L 492.527344 424.59375 L 489.613281 440.09375 L 498.257812 441.71875 C 500.003906 442.046875 501.085938 441.09375 502.179688 439.601562 L 503.652344 440.414062 Z M 499.925781 450.144531 "/>
<path style=" stroke:none;fill-rule:nonzero;fill:rgb(13.725281%,12.156677%,12.548828%);fill-opacity:1;" d="M 134.074219 474.535156 C 134.074219 473.792969 133.851562 473.457031 133.367188 473.457031 L 132.402344 473.457031 L 132.402344 480.890625 L 133.367188 480.890625 C 133.851562 480.890625 134.074219 480.59375 134.074219 479.847656 Z M 134.074219 464.132812 C 134.074219 463.390625 133.851562 463.089844 133.367188 463.089844 L 132.402344 463.089844 L 132.402344 470.300781 L 133.367188 470.300781 C 133.851562 470.300781 134.074219 469.964844 134.074219 469.222656 Z M 133.851562 484.34375 L 128.574219 484.34375 L 128.574219 459.597656 L 133.851562 459.597656 C 135.707031 459.597656 137.753906 460.640625 137.753906 463.871094 L 137.753906 468.738281 C 137.753906 470.078125 137.195312 471.15625 135.929688 471.75 C 137.195312 472.417969 137.753906 473.382812 137.753906 474.757812 L 137.753906 480.070312 C 137.753906 483.304688 135.707031 484.34375 133.851562 484.34375 "/>
<path style=" stroke:none;fill-rule:nonzero;fill:rgb(13.725281%,12.156677%,12.548828%);fill-opacity:1;" d="M 148.601562 484.714844 C 145.925781 484.714844 143.847656 482.671875 143.847656 479.847656 L 143.847656 459.601562 L 147.675781 459.601562 L 147.675781 479.996094 C 147.675781 480.628906 148.082031 481 148.601562 481 C 149.160156 481 149.570312 480.628906 149.570312 479.996094 L 149.570312 459.601562 L 153.246094 459.601562 L 153.246094 479.847656 C 153.246094 482.671875 151.277344 484.714844 148.601562 484.714844 "/>
<path style=" stroke:none;fill-rule:nonzero;fill:rgb(13.725281%,12.156677%,12.548828%);fill-opacity:1;" d="M 165.359375 463.351562 L 165.359375 484.34375 L 161.535156 484.34375 L 161.535156 463.351562 L 158.746094 463.351562 L 158.746094 459.597656 L 168.148438 459.597656 L 168.148438 463.351562 Z M 165.359375 463.351562 "/>
<path style=" stroke:none;fill-rule:nonzero;fill:rgb(13.725281%,12.156677%,12.548828%);fill-opacity:1;" d="M 178.402344 484.714844 C 175.652344 484.714844 173.460938 482.671875 173.460938 479.625 L 173.460938 464.316406 C 173.460938 461.308594 175.652344 459.226562 178.402344 459.226562 C 181.226562 459.226562 182.824219 461.269531 182.824219 464.207031 L 182.824219 468.441406 L 179.554688 468.441406 L 179.554688 464.09375 C 179.554688 463.425781 179.222656 462.941406 178.441406 462.941406 C 177.660156 462.941406 177.363281 463.425781 177.363281 464.09375 L 177.363281 479.847656 C 177.363281 480.515625 177.660156 481 178.441406 481 C 179.222656 481 179.554688 480.515625 179.554688 479.847656 L 179.554688 475.5 L 182.824219 475.5 L 182.824219 479.738281 C 182.824219 482.710938 181.226562 484.714844 178.402344 484.714844 "/>
<path style=" stroke:none;fill-rule:nonzero;fill:rgb(13.725281%,12.156677%,12.548828%);fill-opacity:1;" d="M 194.789062 484.34375 L 194.789062 474.128906 L 192.636719 474.128906 L 192.636719 484.34375 L 188.808594 484.34375 L 188.808594 459.601562 L 192.636719 459.601562 L 192.636719 470.335938 L 194.789062 470.335938 L 194.789062 459.601562 L 198.578125 459.601562 L 198.578125 484.34375 Z M 194.789062 484.34375 "/>
<path style=" stroke:none;fill-rule:nonzero;fill:rgb(13.725281%,12.156677%,12.548828%);fill-opacity:1;" d="M 204.972656 484.34375 L 204.972656 459.601562 L 212.996094 459.601562 L 212.996094 463.167969 L 208.800781 463.167969 L 208.800781 469.929688 L 211.585938 469.929688 L 211.585938 473.308594 L 208.800781 473.308594 L 208.800781 480.667969 L 212.996094 480.667969 L 212.996094 484.34375 Z M 204.972656 484.34375 "/>
<path style=" stroke:none;fill-rule:nonzero;fill:rgb(13.725281%,12.156677%,12.548828%);fill-opacity:1;" d="M 224.367188 464.132812 C 224.367188 463.390625 224.144531 463.089844 223.699219 463.089844 L 222.734375 463.089844 L 222.734375 470.746094 L 223.699219 470.746094 C 224.144531 470.746094 224.367188 470.484375 224.367188 469.707031 Z M 225.410156 484.34375 C 224.8125 484.34375 224.480469 481.929688 224.480469 480.515625 L 224.480469 475.128906 C 224.480469 474.535156 224.183594 474.015625 223.660156 474.015625 L 222.734375 474.015625 L 222.734375 484.34375 L 218.90625 484.34375 L 218.90625 459.597656 L 224.070312 459.597656 C 225.964844 459.597656 228.082031 460.714844 228.082031 463.945312 L 228.082031 469.59375 C 228.082031 470.746094 227.453125 471.710938 226.449219 472.382812 C 227.453125 473.050781 228.195312 473.976562 228.195312 475.203125 L 228.195312 480.21875 C 228.195312 481.78125 228.417969 483.046875 228.675781 484.234375 L 228.675781 484.34375 Z M 225.410156 484.34375 "/>
<path style=" stroke:none;fill-rule:nonzero;fill:rgb(13.725281%,12.156677%,12.548828%);fill-opacity:1;" d="M 246.996094 466.324219 L 246.070312 476.578125 L 247.664062 476.578125 Z M 248.1875 484.34375 L 247.964844 480.109375 L 245.695312 480.109375 L 245.324219 484.34375 L 241.871094 484.34375 L 244.804688 459.601562 L 249.152344 459.601562 L 252.085938 484.34375 Z M 248.1875 484.34375 "/>
<path style=" stroke:none;fill-rule:nonzero;fill:rgb(13.725281%,12.156677%,12.548828%);fill-opacity:1;" d="M 264.460938 484.34375 L 261.675781 473.160156 L 260.820312 469.78125 L 260.820312 484.34375 L 257.550781 484.34375 L 257.550781 459.601562 L 261.191406 459.601562 L 263.644531 470.710938 L 264.386719 474.164062 L 264.386719 459.601562 L 267.621094 459.601562 L 267.621094 484.34375 Z M 264.460938 484.34375 "/>
<path style=" stroke:none;fill-rule:nonzero;fill:rgb(13.725281%,12.156677%,12.548828%);fill-opacity:1;" d="M 279.695312 464.429688 C 279.695312 463.574219 279.363281 463.167969 278.695312 463.167969 L 277.800781 463.167969 L 277.800781 480.816406 L 278.695312 480.816406 C 279.363281 480.816406 279.695312 480.40625 279.695312 479.515625 Z M 279.027344 484.34375 L 273.976562 484.34375 L 273.976562 459.597656 L 279.027344 459.597656 C 281.367188 459.597656 283.523438 460.972656 283.523438 464.429688 L 283.523438 479.664062 C 283.523438 483.117188 281.367188 484.34375 279.027344 484.34375 "/>
<path style=" stroke:none;fill-rule:nonzero;fill:rgb(13.725281%,12.156677%,12.548828%);fill-opacity:1;" d="M 302.511719 484.714844 C 299.539062 484.714844 297.71875 482.859375 297.71875 479.550781 L 297.71875 476.949219 L 301.0625 476.949219 L 301.0625 479.847656 C 301.0625 480.742188 301.472656 481.335938 302.324219 481.335938 C 303.144531 481.335938 303.550781 480.777344 303.550781 479.847656 C 303.550781 477.621094 302.660156 475.875 301.210938 473.382812 C 299.761719 471.082031 297.792969 467.660156 297.792969 464.800781 C 297.792969 461.71875 299.390625 459.226562 302.734375 459.226562 C 305.335938 459.226562 307.082031 461.121094 307.082031 464.390625 L 307.082031 467.105469 L 303.773438 467.105469 L 303.773438 464.019531 C 303.773438 463.203125 303.328125 462.757812 302.734375 462.757812 C 302.101562 462.757812 301.582031 463.167969 301.582031 464.019531 C 301.582031 466.882812 302.4375 467.882812 303.996094 470.632812 C 305.632812 473.421875 307.265625 476.355469 307.265625 479.253906 C 307.265625 483.117188 304.925781 484.714844 302.511719 484.714844 "/>
<path style=" stroke:none;fill-rule:nonzero;fill:rgb(13.725281%,12.156677%,12.548828%);fill-opacity:1;" d="M 323.058594 484.34375 L 323.058594 465.507812 L 322.539062 471.15625 L 320.941406 484.34375 L 318.417969 484.34375 L 317.003906 471.15625 L 316.558594 465.507812 L 316.558594 484.34375 L 313.214844 484.34375 L 313.214844 459.601562 L 318.230469 459.601562 L 319.566406 469.332031 L 320.085938 474.945312 L 320.570312 469.332031 L 321.796875 459.601562 L 326.738281 459.601562 L 326.738281 484.34375 Z M 323.058594 484.34375 "/>
<path style=" stroke:none;fill-rule:nonzero;fill:rgb(13.725281%,12.156677%,12.548828%);fill-opacity:1;" d="M 338.703125 463.945312 C 338.703125 463.316406 338.332031 462.941406 337.773438 462.941406 C 337.21875 462.941406 336.847656 463.316406 336.847656 463.945312 L 336.847656 479.996094 C 336.847656 480.628906 337.21875 481 337.773438 481 C 338.332031 481 338.703125 480.628906 338.703125 479.996094 Z M 337.773438 484.714844 C 335.097656 484.714844 332.945312 482.710938 332.945312 479.738281 L 332.945312 464.207031 C 332.945312 461.269531 335.097656 459.226562 337.773438 459.226562 C 340.488281 459.226562 342.605469 461.269531 342.605469 464.207031 L 342.605469 479.738281 C 342.605469 482.710938 340.488281 484.714844 337.773438 484.714844 "/>
<path style=" stroke:none;fill-rule:nonzero;fill:rgb(13.725281%,12.156677%,12.548828%);fill-opacity:1;" d="M 354.90625 484.34375 L 353.492188 474.535156 L 352.675781 478.027344 L 352.675781 484.34375 L 348.847656 484.34375 L 348.847656 459.601562 L 352.675781 459.601562 L 352.675781 470.484375 L 354.90625 459.601562 L 358.582031 459.601562 L 356.132812 470.078125 L 358.769531 484.34375 Z M 354.90625 484.34375 "/>
<path style=" stroke:none;fill-rule:nonzero;fill:rgb(13.725281%,12.156677%,12.548828%);fill-opacity:1;" d="M 364.304688 484.34375 L 364.304688 459.601562 L 372.332031 459.601562 L 372.332031 463.167969 L 368.132812 463.167969 L 368.132812 469.929688 L 370.917969 469.929688 L 370.917969 473.308594 L 368.132812 473.308594 L 368.132812 480.667969 L 372.332031 480.667969 L 372.332031 484.34375 Z M 364.304688 484.34375 "/>
<path style=" stroke:none;fill-rule:nonzero;fill:rgb(13.725281%,12.156677%,12.548828%);fill-opacity:1;" d="M 384.222656 484.34375 L 384.222656 474.128906 L 382.066406 474.128906 L 382.066406 484.34375 L 378.238281 484.34375 L 378.238281 459.601562 L 382.066406 459.601562 L 382.066406 470.335938 L 384.222656 470.335938 L 384.222656 459.601562 L 388.011719 459.601562 L 388.011719 484.34375 Z M 384.222656 484.34375 "/>
<path style=" stroke:none;fill-rule:nonzero;fill:rgb(13.725281%,12.156677%,12.548828%);fill-opacity:1;" d="M 399.976562 463.945312 C 399.976562 463.316406 399.605469 462.941406 399.046875 462.941406 C 398.492188 462.941406 398.121094 463.316406 398.121094 463.945312 L 398.121094 479.996094 C 398.121094 480.628906 398.492188 481 399.046875 481 C 399.605469 481 399.976562 480.628906 399.976562 479.996094 Z M 399.046875 484.714844 C 396.371094 484.714844 394.21875 482.710938 394.21875 479.738281 L 394.21875 464.207031 C 394.21875 461.269531 396.371094 459.226562 399.046875 459.226562 C 401.761719 459.226562 403.878906 461.269531 403.878906 464.207031 L 403.878906 479.738281 C 403.878906 482.710938 401.761719 484.714844 399.046875 484.714844 "/>
<path style=" stroke:none;fill-rule:nonzero;fill:rgb(13.725281%,12.156677%,12.548828%);fill-opacity:1;" d="M 414.804688 484.714844 C 412.128906 484.714844 410.046875 482.671875 410.046875 479.847656 L 410.046875 459.601562 L 413.875 459.601562 L 413.875 479.996094 C 413.875 480.628906 414.28125 481 414.804688 481 C 415.359375 481 415.769531 480.628906 415.769531 479.996094 L 415.769531 459.601562 L 419.449219 459.601562 L 419.449219 479.847656 C 419.449219 482.671875 417.480469 484.714844 414.804688 484.714844 "/>
<path style=" stroke:none;fill-rule:nonzero;fill:rgb(13.725281%,12.156677%,12.548828%);fill-opacity:1;" d="M 430.039062 484.714844 C 427.066406 484.714844 425.246094 482.859375 425.246094 479.550781 L 425.246094 476.949219 L 428.589844 476.949219 L 428.589844 479.847656 C 428.589844 480.742188 428.996094 481.335938 429.851562 481.335938 C 430.667969 481.335938 431.078125 480.777344 431.078125 479.847656 C 431.078125 477.621094 430.1875 475.875 428.738281 473.382812 C 427.289062 471.082031 425.316406 467.660156 425.316406 464.800781 C 425.316406 461.71875 426.917969 459.226562 430.261719 459.226562 C 432.859375 459.226562 434.609375 461.121094 434.609375 464.390625 L 434.609375 467.105469 L 431.300781 467.105469 L 431.300781 464.019531 C 431.300781 463.203125 430.855469 462.757812 430.261719 462.757812 C 429.628906 462.757812 429.109375 463.167969 429.109375 464.019531 C 429.109375 466.882812 429.964844 467.882812 431.523438 470.632812 C 433.160156 473.421875 434.792969 476.355469 434.792969 479.253906 C 434.792969 483.117188 432.453125 484.714844 430.039062 484.714844 "/>
<path style=" stroke:none;fill-rule:nonzero;fill:rgb(13.725281%,12.156677%,12.548828%);fill-opacity:1;" d="M 440.738281 484.34375 L 440.738281 459.601562 L 448.765625 459.601562 L 448.765625 463.167969 L 444.566406 463.167969 L 444.566406 469.929688 L 447.351562 469.929688 L 447.351562 473.308594 L 444.566406 473.308594 L 444.566406 480.667969 L 448.765625 480.667969 L 448.765625 484.34375 Z M 440.738281 484.34375 "/>
<path style=" stroke:none;fill-rule:nonzero;fill:rgb(13.725281%,12.156677%,12.548828%);fill-opacity:1;" d="M 360.210938 518.484375 L 364.425781 518.484375 L 362.292969 513.894531 Z M 360.210938 518.484375 "/>
<path style=" stroke:none;fill-rule:nonzero;fill:rgb(13.725281%,12.156677%,12.548828%);fill-opacity:1;" d="M 323.859375 514.839844 C 323.859375 514.074219 323.308594 513.359375 321.746094 513.359375 L 318.050781 513.359375 L 318.050781 516.738281 L 321.828125 516.738281 C 323.210938 516.738281 323.859375 516.058594 323.859375 515.15625 Z M 323.859375 514.839844 "/>
<path style=" stroke:none;fill-rule:nonzero;fill:rgb(13.725281%,12.156677%,12.548828%);fill-opacity:1;" d="M 409.578125 519.617188 C 408.296875 519.617188 407.257812 518.578125 407.257812 517.296875 C 407.257812 516.015625 408.296875 514.976562 409.578125 514.976562 C 410.859375 514.976562 411.898438 516.015625 411.898438 517.296875 C 411.898438 518.578125 410.859375 519.617188 409.578125 519.617188 M 398.527344 517.9375 C 398.527344 520.597656 396.398438 522.761719 392.855469 522.761719 L 387.695312 522.761719 L 387.695312 511.679688 L 392.855469 511.679688 C 396.398438 511.679688 398.527344 513.84375 398.527344 516.539062 Z M 382.796875 522.761719 L 381.152344 522.761719 L 374.945312 515.757812 L 374.144531 514.726562 L 374.144531 522.761719 L 372.164062 522.761719 L 372.164062 511.679688 L 374.011719 511.679688 L 380.019531 518.703125 L 380.835938 519.734375 L 380.835938 511.679688 L 382.796875 511.679688 Z M 366.402344 522.761719 L 365.136719 520 L 359.546875 520 L 358.316406 522.761719 L 356.234375 522.761719 L 361.460938 511.679688 L 363.226562 511.679688 L 368.535156 522.761719 Z M 353.488281 522.761719 L 343.953125 522.761719 L 343.953125 511.679688 L 345.949219 511.679688 L 345.949219 521.066406 L 353.488281 521.066406 Z M 339.621094 513.378906 L 332.566406 513.378906 L 332.566406 516.238281 L 337.941406 516.238281 L 337.941406 517.871094 L 332.566406 517.871094 L 332.566406 521.066406 L 339.621094 521.066406 L 339.621094 522.761719 L 330.566406 522.761719 L 330.566406 511.679688 L 339.621094 511.679688 Z M 326.453125 522.796875 L 324.957031 522.796875 C 324.175781 522.796875 323.859375 522.097656 323.808594 521.03125 L 323.757812 519.75 C 323.707031 518.703125 323.277344 518.21875 321.476562 518.21875 L 318.050781 518.21875 L 318.050781 522.761719 L 316.054688 522.761719 L 316.054688 511.679688 L 321.511719 511.679688 C 324.558594 511.679688 325.890625 512.960938 325.890625 514.660156 L 325.890625 514.824219 C 325.890625 516.039062 325.304688 517.089844 323.375 517.453125 C 325.304688 517.605469 325.789062 518.585938 325.789062 519.800781 L 325.804688 520.898438 C 325.824219 521.566406 325.953125 522.015625 326.453125 522.429688 Z M 311.160156 522.761719 L 309.160156 522.761719 L 309.160156 511.679688 L 311.160156 511.679688 Z M 297.476562 522.546875 C 297.476562 523.628906 296.894531 524.878906 295.097656 524.878906 L 295.097656 524.34375 C 295.929688 524.34375 296.460938 523.761719 296.460938 522.761719 L 295.628906 522.761719 L 295.628906 520.867188 L 297.476562 520.867188 Z M 290.847656 522.761719 L 288.851562 522.761719 L 288.851562 517.988281 L 282.179688 517.988281 L 282.179688 522.761719 L 280.179688 522.761719 L 280.179688 511.679688 L 282.179688 511.679688 L 282.179688 516.371094 L 288.851562 516.371094 L 288.851562 511.679688 L 290.847656 511.679688 Z M 276 513.378906 L 271.691406 513.378906 L 271.691406 522.761719 L 269.695312 522.761719 L 269.695312 513.378906 L 265.382812 513.378906 L 265.382812 511.679688 L 276 511.679688 Z M 261.503906 522.761719 L 260.238281 520 L 254.648438 520 L 253.414062 522.761719 L 251.335938 522.761719 L 256.5625 511.679688 L 258.324219 511.679688 L 263.632812 522.761719 Z M 248.238281 513.378906 L 241.179688 513.378906 L 241.179688 516.238281 L 246.554688 516.238281 L 246.554688 517.871094 L 241.179688 517.871094 L 241.179688 521.066406 L 248.238281 521.066406 L 248.238281 522.761719 L 239.183594 522.761719 L 239.183594 511.679688 L 248.238281 511.679688 Z M 234.289062 522.761719 L 232.339844 522.761719 L 232.339844 514.074219 L 231.789062 515.257812 L 227.863281 522.761719 L 226.664062 522.761719 L 222.785156 515.257812 L 222.238281 514.074219 L 222.238281 522.761719 L 220.324219 522.761719 L 220.324219 511.679688 L 223.101562 511.679688 L 226.832031 519.136719 L 227.347656 520.265625 L 227.863281 519.136719 L 231.542969 511.679688 L 234.289062 511.679688 Z M 208.640625 522.761719 L 206.792969 522.761719 L 206.792969 520.867188 L 208.640625 520.867188 Z M 202.859375 517.921875 C 202.859375 520.632812 200.679688 523.164062 197.101562 523.164062 C 193.542969 523.164062 191.359375 520.632812 191.359375 517.921875 L 191.359375 516.539062 C 191.359375 513.777344 193.542969 511.296875 197.101562 511.296875 C 200.679688 511.296875 202.859375 513.777344 202.859375 516.539062 Z M 182.671875 521.449219 C 184.367188 521.449219 185.648438 520.566406 186.398438 519.535156 L 187.8125 520.550781 C 186.882812 521.914062 185.035156 523.164062 182.554688 523.164062 C 178.792969 523.164062 176.613281 520.683594 176.613281 517.855469 L 176.613281 516.6875 C 176.613281 513.84375 178.960938 511.296875 182.636719 511.296875 C 185.015625 511.296875 186.949219 512.527344 187.8125 513.894531 L 186.367188 514.90625 C 185.601562 513.925781 184.351562 513.011719 182.570312 513.011719 C 180.023438 513.011719 178.628906 514.707031 178.628906 516.6875 L 178.628906 517.855469 C 178.628906 519.800781 180.042969 521.449219 182.671875 521.449219 M 164.015625 519.617188 C 162.734375 519.617188 161.695312 518.578125 161.695312 517.296875 C 161.695312 516.015625 162.734375 514.976562 164.015625 514.976562 C 165.296875 514.976562 166.335938 516.015625 166.335938 517.296875 C 166.335938 518.578125 165.296875 519.617188 164.015625 519.617188 M 404.710938 504.941406 L 167.574219 504.941406 C 160.800781 504.941406 155.308594 510.433594 155.308594 517.207031 C 155.308594 523.980469 160.800781 529.472656 167.574219 529.472656 L 404.710938 529.472656 C 411.488281 529.472656 416.976562 523.980469 416.976562 517.207031 C 416.976562 510.433594 411.488281 504.941406 404.710938 504.941406 "/>
<path style=" stroke:none;fill-rule:nonzero;fill:rgb(13.725281%,12.156677%,12.548828%);fill-opacity:1;" d="M 255.3125 518.484375 L 259.523438 518.484375 L 257.394531 513.894531 Z M 255.3125 518.484375 "/>
<path style=" stroke:none;fill-rule:nonzero;fill:rgb(13.725281%,12.156677%,12.548828%);fill-opacity:1;" d="M 197.101562 513.011719 C 194.671875 513.011719 193.375 514.640625 193.375 516.539062 L 193.375 517.886719 C 193.375 519.785156 194.671875 521.449219 197.101562 521.449219 C 199.53125 521.449219 200.847656 519.785156 200.847656 517.886719 L 200.847656 516.539062 C 200.847656 514.640625 199.53125 513.011719 197.101562 513.011719 "/>
<path style=" stroke:none;fill-rule:nonzero;fill:rgb(13.725281%,12.156677%,12.548828%);fill-opacity:1;" d="M 392.789062 513.378906 L 389.691406 513.378906 L 389.691406 521.082031 L 392.789062 521.082031 C 395.132812 521.082031 396.53125 519.734375 396.53125 517.835938 L 396.53125 516.605469 C 396.53125 514.707031 395.132812 513.378906 392.789062 513.378906 "/>
</g>
</svg>
